<svg width="100" height="100" viewBox="0 0 100 100" fill="none" xmlns="http://www.w3.org/2000/svg">
<path d="M97.3996 38.4712C98.1973 44.6087 95.1865 49.0091 95.4181 54.3488C94.8648 55.198 94.2343 55.9957 93.5138 56.7162C91.8154 58.4146 89.6924 59.637 87.3764 60.4347C83.9024 56.4846 78.5884 53.8856 73.7762 53.4996C70.714 53.2551 68.1149 53.9242 65.593 54.5418C63.1612 51.9813 60.8838 49.5109 56.6378 48.8032C56.0588 48.7003 55.4799 48.6488 54.9395 48.6231C55.4155 48.34 55.9044 48.0055 56.3933 47.6323C59.7387 45.0333 60.678 41.9067 61.643 38.5999C64.0233 38.0209 66.4937 37.4033 68.8998 35.8722C73.1329 33.183 76.5683 28.0749 77.6234 22.6838C80.0295 22.182 82.487 22.182 84.803 22.8253C85.7423 23.0827 86.643 23.4558 87.5051 23.9061C89.8983 28.7054 94.7361 31.06 97.0393 36.7857L97.1551 37.0945C97.258 37.5577 97.3481 38.008 97.3996 38.4712Z" fill="#FF0000"/>
<path d="M90.8393 66.7267C91.0837 67.666 91.2253 68.631 91.2639 69.6089C88.2788 74.0865 88.6776 79.4519 84.8691 84.3027C84.7919 84.3927 84.7147 84.4957 84.6375 84.5857C84.303 84.8945 83.9556 85.1905 83.5953 85.4607C78.6931 89.2049 73.3662 88.7931 68.8629 91.6753C67.8464 91.6238 66.8429 91.4694 65.8521 91.2121C63.5233 90.5816 61.4002 89.3721 59.5603 87.7638C61.233 82.7715 60.8212 76.8657 58.7626 72.5168C57.4502 69.7375 55.5716 67.8204 53.7703 65.9547C54.7739 62.5579 55.7646 59.3541 54.2721 55.3268C54.0534 54.7607 53.8218 54.2331 53.5645 53.7571C54.0405 54.0401 54.5809 54.2975 55.147 54.5291C59.0714 56.1246 62.2623 55.3783 65.5948 54.542C67.2803 56.3304 69.043 58.1575 71.5906 59.4828C76.0425 61.7859 82.18 62.2234 87.3781 60.4349C89.0122 62.262 90.2345 64.3979 90.8393 66.7267Z" fill="#FF0000"/>
<path d="M52.4966 73.6105C52.7153 78.6027 55.4045 84.1612 59.5604 87.7638C58.7884 90.0927 57.5532 92.2157 55.8419 93.9012C55.1471 94.5832 54.3752 95.1879 53.5517 95.7026C48.1991 95.368 43.7473 98.3917 37.6356 97.5297C37.5455 97.5168 37.4425 97.5039 37.3525 97.4782C36.8893 97.3366 36.439 97.1694 36.0015 96.9892C30.2887 94.6218 27.9856 89.8096 23.2377 87.3521C22.7745 86.4385 22.4014 85.4993 22.144 84.5086C21.5264 82.1797 21.5136 79.7221 21.9896 77.3289C27.1492 76.2867 32.0514 72.9671 34.792 69.017C36.5419 66.4952 37.2496 63.9089 37.9701 61.4128C41.4184 60.5893 44.6865 59.8431 47.4271 56.5235C47.8131 56.0603 48.1348 55.5971 48.4307 55.1467C48.4307 55.7 48.4693 56.2918 48.5594 56.8966C49.1513 61.0911 51.3901 63.4843 53.7704 65.9548C53.0756 68.3094 52.3679 70.7412 52.4966 73.6105Z" fill="#FF0000"/>
<path d="M42.9739 51.2096C43.5529 51.2996 44.1319 51.364 44.6723 51.3768C44.1962 51.6599 43.7073 51.9944 43.2183 52.3676C39.873 54.9666 38.9209 58.1061 37.9688 61.4128C35.5884 61.979 33.118 62.5966 30.7119 64.1277C26.4788 66.8169 23.0433 71.9249 21.9883 77.3289C19.5951 77.8179 17.1247 77.8308 14.8087 77.1746C13.8694 76.9172 12.9687 76.5441 12.1067 76.0938C9.71344 71.2945 4.87559 68.9527 2.55958 63.2271L2.44374 62.9183C2.34081 62.4551 2.26361 62.0047 2.19927 61.5415C1.41441 55.4041 4.42526 51.0166 4.1808 45.6769C4.73406 44.8148 5.37739 44.0171 6.09792 43.2965C7.79633 41.5981 9.91935 40.3629 12.2225 39.5652C15.7094 43.5153 21.0233 46.1143 25.8354 46.5003C28.8977 46.7448 31.4968 46.0757 34.0058 45.4581C36.4505 48.0186 38.7278 50.489 42.9739 51.2096Z" fill="#FF0000"/>
<path d="M45.3433 44.686C45.5492 45.2393 45.7808 45.7539 46.0252 46.23C45.5492 45.9598 45.0217 45.7153 44.4555 45.4837C40.5312 43.8883 37.3402 44.6345 34.0078 45.458C32.3222 43.6824 30.5723 41.8553 28.0247 40.5301C23.5728 38.2141 17.4226 37.7766 12.2245 39.5651C10.6032 37.738 9.38092 35.615 8.77619 33.2861C8.53172 32.334 8.39016 31.369 8.35156 30.404C11.3238 25.9263 10.9378 20.5481 14.7335 15.6973C14.7849 15.633 14.8235 15.5815 14.875 15.5172C15.2481 15.1698 15.6341 14.8481 16.0201 14.5522C20.9224 10.7951 26.2491 11.2068 30.7525 8.32471C31.7689 8.37617 32.7854 8.54343 33.7633 8.80077C36.0922 9.41837 38.2152 10.6407 40.0551 12.2362C38.3825 17.2285 38.7813 23.1343 40.8529 27.4961C42.1653 30.2753 44.0438 32.1796 45.858 34.0452C44.8415 37.442 43.8379 40.6459 45.3433 44.686Z" fill="#FF0000"/>
<path d="M77.471 15.5044C78.0886 17.8333 78.1015 20.2779 77.6254 22.684C72.4658 23.7262 67.5508 27.0201 64.8231 30.983C63.0732 33.5049 62.3526 36.104 61.645 38.6001C58.1967 39.4236 54.9286 40.157 52.188 43.4766C51.802 43.9398 51.4803 44.403 51.1843 44.8533C51.1843 44.3001 51.1458 43.7211 51.0557 43.1163C50.4638 38.9218 48.225 36.5286 45.8575 34.0453C46.5523 31.6907 47.2472 29.2589 47.1185 26.4025C46.8998 21.3973 44.1978 15.8518 40.0547 12.2362C40.8396 9.92024 42.0618 7.79724 43.7731 6.1117C44.4679 5.42976 45.2399 4.82502 46.0634 4.31035C51.416 4.63202 55.8678 1.60834 61.9795 2.48328C62.1082 2.49614 62.224 2.52188 62.3526 2.54762C62.7901 2.68915 63.2019 2.84355 63.6136 3.01082C69.3136 5.39116 71.6167 10.1904 76.3645 12.6608C76.8406 13.5615 77.2137 14.5137 77.471 15.5044Z" fill="#FF0000"/>
<path d="M76.3634 12.6608C71.6156 10.1904 69.3125 5.39115 63.6126 3.01081C63.2008 2.84354 62.789 2.68914 62.3516 2.54761C67.8585 3.44828 73.6614 7.33402 76.3634 12.6608Z" fill="#D900FF"/>
<path d="M62.3537 2.54741C62.225 2.52168 62.1092 2.49594 61.9806 2.48308C55.8689 1.60814 51.417 4.63181 46.0645 4.31015C50.7737 1.29934 57.2842 0.887608 62.3537 2.54741Z" fill="#D900FF"/>
<path d="M14.875 15.5171C18.4005 11.1552 24.7437 8.0029 30.7525 8.32457C26.2491 11.2067 20.9224 10.795 16.0202 14.552C15.6342 14.848 15.2481 15.1697 14.875 15.5171Z" fill="#D900FF"/>
<path d="M14.8745 15.5173C14.8745 15.5173 14.7845 15.6331 14.733 15.6975C10.9373 20.5482 11.3233 25.9265 8.35108 30.4041C8.11948 24.8714 10.963 19.0943 14.8745 15.5173Z" fill="#D900FF"/>
<path d="M4.18279 45.6768C4.42726 51.0164 1.4164 55.404 2.20127 61.5414C2.2656 62.0046 2.3428 62.455 2.44574 62.9182C0.464265 57.6943 0.914646 50.6819 4.18279 45.6768Z" fill="#D900FF"/>
<path d="M2.56115 63.2268C4.87715 68.9524 9.71501 71.2942 12.1082 76.0935C7.16741 73.533 3.56472 68.129 2.44531 62.918L2.56115 63.2268Z" fill="#D900FF"/>
<path d="M36.002 96.989C36.4395 97.1691 36.8898 97.3364 37.353 97.4779C31.8203 96.5901 25.966 92.6915 23.2383 87.3518C27.9861 89.8093 30.2892 94.6215 36.002 96.989Z" fill="#D900FF"/>
<path d="M37.6347 97.5296C43.7464 98.3916 48.1982 95.3679 53.5508 95.7025C48.8673 98.6876 42.4082 99.1122 37.3516 97.4781C37.4416 97.5038 37.5446 97.5167 37.6347 97.5296Z" fill="#D900FF"/>
<path d="M83.5937 85.4606C83.954 85.1904 84.3014 84.8945 84.6359 84.5857C81.0976 88.9089 74.8186 91.9969 68.8613 91.6752C73.3647 88.7931 78.6915 89.2048 83.5937 85.4606Z" fill="#D900FF"/>
<path d="M91.2631 69.6089C91.4947 75.193 88.5997 81.0217 84.6367 84.5857C84.7139 84.4957 84.7911 84.3927 84.8683 84.3027C88.6769 79.4519 88.278 74.0865 91.2631 69.6089Z" fill="#D900FF"/>
<path d="M95.419 54.349C95.1874 49.0093 98.1983 44.6089 97.4005 38.4715C97.3491 38.0083 97.259 37.5579 97.1561 37.0947C99.1375 42.3186 98.7 49.331 95.419 54.349Z" fill="#D900FF"/>
<path d="M97.1559 37.0949L97.0401 36.7861C94.7369 31.0604 89.8991 28.7058 87.5059 23.9065C92.4467 26.4798 96.0494 31.8838 97.1559 37.0949Z" fill="#D900FF"/>
<path d="M73.7789 53.4997C78.5911 53.8857 83.905 56.4847 87.379 60.4348C82.1809 62.2233 76.0434 61.7858 71.5916 59.4827C69.0439 58.1574 67.2812 56.3303 65.5957 54.5419C68.1176 53.9243 70.7166 53.2552 73.7789 53.4997Z" fill="#D900FF"/>
<path d="M58.7638 72.5169C60.8224 76.8658 61.2342 82.7716 59.5615 87.7639C55.4055 84.1612 52.7164 78.6028 52.4977 73.6105C52.369 70.7413 53.0767 68.3094 53.7715 65.9548C55.5728 67.8205 57.4514 69.7377 58.7638 72.5169Z" fill="#D900FF"/>
<path d="M37.9688 61.4128C37.2482 63.909 36.5405 66.4952 34.7907 69.0171C32.0501 72.9671 27.1478 76.2867 21.9883 77.3289C23.0434 71.9249 26.4788 66.8169 30.7119 64.1277C33.118 62.5966 35.5884 61.979 37.9688 61.4128Z" fill="#D900FF"/>
<path d="M28.0229 40.5303C30.5705 41.8555 32.3204 43.6826 34.006 45.4582C31.497 46.0758 28.8978 46.7449 25.8356 46.5004C21.0234 46.1144 15.7095 43.5153 12.2227 39.5653C17.4208 37.7768 23.571 38.2143 28.0229 40.5303Z" fill="#D900FF"/>
<path d="M47.1164 26.4026C47.2451 29.259 46.5502 31.6908 45.8554 34.0454C44.0412 32.1797 42.1627 30.2754 40.8503 27.4962C38.7788 23.1344 38.3799 17.2286 40.0526 12.2363C44.1957 15.8519 46.8977 21.3974 47.1164 26.4026Z" fill="#D900FF"/>
<path d="M77.625 22.6838C76.5699 28.075 73.1345 33.1831 68.9014 35.8722C66.4953 37.4033 64.0249 38.021 61.6445 38.6C62.3522 36.1038 63.0728 33.5048 64.8226 30.9829C67.5504 27.0199 72.4654 23.726 77.625 22.6838Z" fill="#D900FF"/>
<path d="M22.1434 84.5083C22.4008 85.4991 22.774 86.4383 23.2372 87.3519C22.0148 86.7085 20.6252 86.2325 18.9654 85.988C16.4693 85.6277 14.3591 85.9494 12.9952 86.2582C13.3426 84.9072 13.7029 82.7842 13.3683 80.3009C13.1496 78.6797 12.7122 77.303 12.1074 76.0935C12.9695 76.5438 13.8702 76.917 14.8095 77.1743C17.1255 77.8305 19.5958 77.8176 21.989 77.3287C21.513 79.7219 21.5258 82.1795 22.1434 84.5083Z" fill="#0000FF"/>
<path d="M65.8513 91.2119C66.8421 91.4693 67.8456 91.6237 68.8621 91.6751C67.6912 92.4214 66.5848 93.3864 65.5426 94.6988C63.9986 96.6803 63.2137 98.6746 62.8019 99.9999C61.7983 99.0349 60.1514 97.671 57.8225 96.706C56.3171 96.0755 54.9018 95.7796 53.5508 95.7024C54.3743 95.1877 55.1462 94.583 55.841 93.9011C57.5523 92.2155 58.7875 90.0925 59.5595 87.7637C61.3994 89.372 63.5225 90.5815 65.8513 91.2119Z" fill="#0000FF"/>
<path d="M96.3856 58.7235C97.3249 61.0524 98.663 62.7251 99.6023 63.7544C98.2641 64.1404 96.257 64.8738 94.2626 66.405C92.9631 67.3957 91.9981 68.4765 91.2647 69.6088C91.2261 68.6309 91.0845 67.6659 90.8401 66.7266C90.2353 64.3978 89.013 62.2619 87.3789 60.4348C89.6949 59.6371 91.8179 58.4148 93.5163 56.7163C94.2369 55.9958 94.8673 55.1981 95.4206 54.3489C95.4849 55.7256 95.768 57.1667 96.3856 58.7235Z" fill="#0000FF"/>
<path d="M86.232 19.7118C86.4508 21.333 86.8883 22.6969 87.5059 23.9064C86.6438 23.4561 85.7431 23.0829 84.8038 22.8256C82.4878 22.1822 80.0303 22.1822 77.6242 22.684C78.1003 20.278 78.0874 17.8333 77.4698 15.5044C77.2125 14.5137 76.8393 13.5616 76.3633 12.6609C77.5856 13.2914 78.9881 13.7803 80.6479 14.0248C83.1312 14.3722 85.2542 14.0505 86.6052 13.7417C86.2707 15.1056 85.9104 17.2157 86.232 19.7118Z" fill="#0000FF"/>
<path d="M46.0634 4.31033C45.2399 4.825 44.4679 5.42975 43.7731 6.11168C42.0618 7.79722 40.8395 9.92022 40.0546 12.2362C38.2147 10.6408 36.0917 9.41842 33.7628 8.80082C32.7849 8.54349 31.7684 8.37623 30.752 8.32476C31.9228 7.57849 33.0294 6.61348 34.0587 5.30108C35.6156 3.3196 36.4005 1.32527 36.8122 0C37.8158 0.965003 39.4627 2.34173 41.7787 3.30673C43.2841 3.9372 44.6995 4.23313 46.0634 4.31033Z" fill="#0000FF"/>
<path d="M8.7751 33.286C9.37984 35.6148 10.6022 37.7378 12.2234 39.5649C9.92023 40.3627 7.79721 41.5978 6.0988 43.2963C5.37827 44.0168 4.73495 44.8145 4.18168 45.6766C4.11735 44.287 3.84714 42.8459 3.21668 41.289C2.29027 38.9473 0.952136 37.2746 0 36.2582C1.351 35.8722 3.35818 35.1259 5.35251 33.6076C6.65205 32.604 7.61708 31.5361 8.35048 30.4038C8.38908 31.3688 8.53063 32.3338 8.7751 33.286Z" fill="#0000FF"/>
<path d="M50.6826 49.0738C51.7119 48.8165 53.1916 48.5463 54.9415 48.6235C53.449 49.5241 52.0465 50.0131 51.0429 50.2961C51.7891 51.0553 52.7542 52.2132 53.5648 53.7573C52.0465 52.9209 50.9142 51.943 50.1808 51.2225C49.8849 52.239 49.3702 53.6672 48.4309 55.1469C48.3923 53.397 48.6754 51.9302 48.9327 50.9395C47.9034 51.1968 46.4108 51.4541 44.6738 51.3769C46.1664 50.4763 47.5689 49.9873 48.5596 49.7171C47.8262 48.9451 46.8354 47.7871 46.0248 46.2302C47.556 47.0666 48.6883 48.0573 49.4345 48.7778C49.7305 47.7614 50.2451 46.3332 51.1844 44.8535C51.223 46.6034 50.9399 48.0702 50.6826 49.0738Z" fill="#0000FF"/>
<path d="M61.6461 38.6001C60.681 41.9068 59.7418 45.0335 56.3964 47.6325C55.9075 48.0057 55.4186 48.3402 54.9425 48.6233C53.1927 48.5461 51.7129 48.8163 50.6836 49.0736C50.9409 48.07 51.224 46.6032 51.1854 44.8533C51.4813 44.403 51.8031 43.9398 52.1891 43.4766C54.9297 40.157 58.1978 39.4236 61.6461 38.6001Z" fill="#00FF00"/>
<path d="M56.64 48.8034C60.886 49.5111 63.1634 51.9815 65.5952 54.542C62.2627 55.3783 59.0718 56.1246 55.1475 54.5291C54.5813 54.2975 54.0409 54.0402 53.5649 53.7571C52.7543 52.2131 51.7892 51.0551 51.043 50.296C52.0466 50.0129 53.4491 49.524 54.9416 48.6233C55.482 48.649 56.061 48.7005 56.64 48.8034Z" fill="#00FF00"/>
<path d="M54.2732 55.3269C55.7657 59.3542 54.775 62.558 53.7714 65.9548C51.391 63.4844 49.1522 61.0912 48.5604 56.8966C48.4703 56.2919 48.4316 55.7 48.4316 55.1468C49.3709 53.6671 49.8856 52.2389 50.1816 51.2224C50.915 51.9429 52.0473 52.9208 53.5655 53.7572C53.8229 54.2332 54.0544 54.7608 54.2732 55.3269Z" fill="#00FF00"/>
<path d="M48.9311 50.9395C48.6738 51.9302 48.3907 53.397 48.4293 55.1469C48.1334 55.5972 47.8117 56.0604 47.4257 56.5236C44.6851 59.8432 41.417 60.5895 37.9688 61.4129C38.9209 58.1062 39.873 54.9667 43.2183 52.3676C43.7072 51.9945 44.1962 51.66 44.6723 51.3769C46.4093 51.4541 47.9018 51.1968 48.9311 50.9395Z" fill="#00FF00"/>
<path d="M46.0233 46.2302C46.8339 47.7871 47.8247 48.9451 48.5581 49.7171C47.5674 49.9873 46.1649 50.4762 44.6723 51.3769C44.1319 51.364 43.5529 51.2997 42.9739 51.2096C38.7279 50.4891 36.4505 48.0187 34.0059 45.4582C37.3383 44.6347 40.5293 43.8884 44.4536 45.4839C45.0198 45.7155 45.5472 45.96 46.0233 46.2302Z" fill="#00FF00"/>
<path d="M51.056 43.1162C51.1461 43.7209 51.1847 44.2999 51.1847 44.8532C50.2454 46.3329 49.7308 47.7611 49.4348 48.7775C48.6885 48.057 47.5562 47.0663 46.0251 46.2299C45.7806 45.7539 45.5491 45.2392 45.3432 44.6859C43.8378 40.6458 44.8414 37.442 45.8578 34.0452C48.2253 36.5284 50.4642 38.9217 51.056 43.1162Z" fill="#00FF00"/>
</svg>
